<svg xmlns="http://www.w3.org/2000/svg" width="221.616" height="35.991" viewBox="0 0 221.616 35.991">
  <g id="Group_3" data-name="Group 3" transform="translate(-504 -249.5)">
    <g id="Group_2" data-name="Group 2" transform="translate(504 249.5)">
      <path id="Path_1" data-name="Path 1" d="M127.715,17.845h6.762l5.941,19.424,6.435-19.5h5.409l6.435,19.5,5.941-19.424h6.6l-9.794,28.891h-5.491l-6.476-18.768L143,46.736h-5.494Z" transform="translate(-79.317 -11.032)" fill="#575756"/>
      <path id="Path_2" data-name="Path 2" d="M249.385,57.5a12.516,12.516,0,0,1-4.569-.819,10.6,10.6,0,0,1-3.648-2.336,10.789,10.789,0,0,1-2.4-3.586,11.871,11.871,0,0,1-.863-4.61v-.083a12.245,12.245,0,0,1,.8-4.425,11.19,11.19,0,0,1,2.232-3.647,10.4,10.4,0,0,1,7.828-3.36,10.705,10.705,0,0,1,4.755.984,9.646,9.646,0,0,1,3.341,2.642,11,11,0,0,1,1.966,3.812,15.782,15.782,0,0,1,.634,4.486c0,.247-.005.506-.019.779s-.036.561-.061.861H244.1a5.265,5.265,0,0,0,1.865,3.217,5.594,5.594,0,0,0,3.505,1.086,6.975,6.975,0,0,0,2.785-.532,9.569,9.569,0,0,0,2.542-1.723l3.564,3.156a11.049,11.049,0,0,1-3.772,3.013A11.7,11.7,0,0,1,249.385,57.5ZM253.4,44.3a6.04,6.04,0,0,0-1.476-3.382,4.082,4.082,0,0,0-3.155-1.29,4.179,4.179,0,0,0-3.175,1.269,6.354,6.354,0,0,0-1.577,3.4Z" transform="translate(-147.753 -21.509)" fill="#575756"/>
      <path id="Path_3" data-name="Path 3" d="M314.678,45.058a7.82,7.82,0,0,1-4.118-.986,11,11,0,0,1-2.726-2.3v2.871H301.6V14.729h6.231V25.836a9.886,9.886,0,0,1,2.766-2.562,7.622,7.622,0,0,1,4.078-1,9.768,9.768,0,0,1,3.73.736,9.254,9.254,0,0,1,3.2,2.194,10.957,10.957,0,0,1,2.234,3.564,13.087,13.087,0,0,1,.839,4.857V33.7a13.077,13.077,0,0,1-.839,4.857,11.116,11.116,0,0,1-2.214,3.564,9.037,9.037,0,0,1-3.174,2.194A9.884,9.884,0,0,1,314.678,45.058Zm-1.6-5.288a5.015,5.015,0,0,0,2.07-.432,5.151,5.151,0,0,0,1.7-1.229,5.91,5.91,0,0,0,1.169-1.906,6.889,6.889,0,0,0,.43-2.5v-.081a6.952,6.952,0,0,0-.43-2.48,5.874,5.874,0,0,0-1.169-1.924,5.179,5.179,0,0,0-1.7-1.231,5.186,5.186,0,0,0-4.139,0,4.962,4.962,0,0,0-1.681,1.231,6.122,6.122,0,0,0-1.149,1.924,6.952,6.952,0,0,0-.428,2.48V33.7a6.943,6.943,0,0,0,.428,2.481,6.13,6.13,0,0,0,1.149,1.924,4.936,4.936,0,0,0,1.681,1.229A5,5,0,0,0,313.081,39.77Z" transform="translate(-187.309 -9.147)" fill="#575756"/>
      <path id="Path_4" data-name="Path 4" d="M370.926,17.977h13.3q4.947,0,7.485,2.54a6.638,6.638,0,0,1,1.963,4.877v.083a7.094,7.094,0,0,1-.3,2.172,6.763,6.763,0,0,1-.815,1.7,6.545,6.545,0,0,1-1.181,1.332,7.947,7.947,0,0,1-1.447.983,9.674,9.674,0,0,1,3.916,2.561,6.553,6.553,0,0,1,1.428,4.487V38.8a7.425,7.425,0,0,1-.756,3.441,6.7,6.7,0,0,1-2.168,2.459,10.173,10.173,0,0,1-3.4,1.476,18.269,18.269,0,0,1-4.4.492H370.926Zm16.513,8.483a2.525,2.525,0,0,0-1.065-2.193,5.271,5.271,0,0,0-3.072-.758h-6.229v6.064h5.82a6.575,6.575,0,0,0,3.317-.715,2.478,2.478,0,0,0,1.229-2.317Zm1.6,11.476a2.7,2.7,0,0,0-1.107-2.277,5.963,5.963,0,0,0-3.564-.839h-7.293v6.312h7.5a6.077,6.077,0,0,0,3.277-.759,2.6,2.6,0,0,0,1.188-2.357Z" transform="translate(-230.362 -11.165)" fill="#bad369"/>
      <path id="Path_5" data-name="Path 5" d="M450.895,57.5a12.423,12.423,0,0,1-4.713-.882,11.453,11.453,0,0,1-3.749-2.418,11.3,11.3,0,0,1-2.481-3.605,11.01,11.01,0,0,1-.9-4.446v-.083a11.011,11.011,0,0,1,.9-4.446,11.4,11.4,0,0,1,2.5-3.626,11.844,11.844,0,0,1,3.771-2.46,12.288,12.288,0,0,1,4.754-.9,12.439,12.439,0,0,1,4.713.879,11.572,11.572,0,0,1,3.749,2.419,11.266,11.266,0,0,1,2.479,3.607,11,11,0,0,1,.9,4.446v.081a11.005,11.005,0,0,1-.9,4.446,11.307,11.307,0,0,1-2.5,3.626A11.757,11.757,0,0,1,455.65,56.6,12.284,12.284,0,0,1,450.895,57.5Zm.083-5.368a5.8,5.8,0,0,0,2.4-.472,5.285,5.285,0,0,0,1.78-1.291,5.626,5.626,0,0,0,1.128-1.906,6.83,6.83,0,0,0,.39-2.314v-.083a6.516,6.516,0,0,0-.411-2.315,5.832,5.832,0,0,0-3.032-3.257A5.506,5.506,0,0,0,450.895,40a5.8,5.8,0,0,0-2.4.47,5.324,5.324,0,0,0-1.782,1.293,5.669,5.669,0,0,0-1.126,1.9,6.774,6.774,0,0,0-.39,2.317v.081a6.483,6.483,0,0,0,.412,2.314,5.863,5.863,0,0,0,3.01,3.257A5.42,5.42,0,0,0,450.977,52.132Z" transform="translate(-272.671 -21.509)" fill="#bad369"/>
      <path id="Path_6" data-name="Path 6" d="M510.677,42.146l4.14-6.435h6.516l-7.417,10.738,7.744,11.229h-6.679l-4.428-6.844-4.424,6.844h-6.517l7.7-11.148L499.9,35.711h6.683Z" transform="translate(-310.282 -22.178)" fill="#bad369"/>
      <path id="Path_7" data-name="Path 7" d="M566.275,79.482a4.223,4.223,0,0,1-1.7-.343,4.3,4.3,0,0,1-1.369-.927,4.342,4.342,0,0,1-.915-1.37,4.191,4.191,0,0,1-.335-1.669v-.023a4.2,4.2,0,0,1,.335-1.669,4.361,4.361,0,0,1,2.3-2.315,4.378,4.378,0,0,1,3.405,0,4.322,4.322,0,0,1,1.369.927,4.405,4.405,0,0,1,.915,1.37,4.19,4.19,0,0,1,.335,1.668v.024a4.2,4.2,0,0,1-.335,1.67,4.355,4.355,0,0,1-2.3,2.315A4.237,4.237,0,0,1,566.275,79.482Zm0-.479A3.791,3.791,0,0,0,567.8,78.7a3.868,3.868,0,0,0,1.214-.826,3.8,3.8,0,0,0,.805-1.225,3.874,3.874,0,0,0,.294-1.5v-.024a3.884,3.884,0,0,0-1.1-2.71,3.693,3.693,0,0,0-1.21-.819,3.8,3.8,0,0,0-1.511-.3,3.753,3.753,0,0,0-1.525.305,3.8,3.8,0,0,0-2.023,2.051,3.879,3.879,0,0,0-.292,1.5v.023a3.943,3.943,0,0,0,.285,1.489A3.776,3.776,0,0,0,566.275,79ZM564.5,72.722h2.046a1.921,1.921,0,0,1,1.421.5,1.355,1.355,0,0,1,.385,1v.024a1.42,1.42,0,0,1-.276.909,1.626,1.626,0,0,1-.718.514l1.124,1.651H567.3l-.981-1.482h-.8v1.482H564.5Zm2.034,2.249a.835.835,0,0,0,.585-.186.613.613,0,0,0,.2-.472V74.29a.6.6,0,0,0-.216-.5.95.95,0,0,0-.6-.166h-.991v1.351Z" transform="translate(-349.001 -43.982)" fill="#575756"/>
      <g id="Group_1" data-name="Group 1">
        <path id="Path_8" data-name="Path 8" d="M16.938,15.977,12.3,21.563H5.589V39.481H23.68V34.8L29.8,27.581V45.422H0V15.977Z" transform="translate(0 -9.922)" fill="#575756"/>
        <path id="Path_9" data-name="Path 9" d="M62.07,6.054H51.959L57.035,0H67.219Z" transform="translate(-32.269)" fill="#bad369"/>
        <path id="Path_10" data-name="Path 10" d="M83.79,0V8.871L78.641,14.9V6.054Z" transform="translate(-48.839)" fill="#fdd237"/>
      </g>
    </g>
  </g>
</svg>
