<svg xmlns="http://www.w3.org/2000/svg" width="54.597" height="48.071" viewBox="0 0 54.597 48.071">
  <g id="Money-Payments-Finance__x2F__Finance_x2F_Savings__x2F__saving-piggy-bank" transform="translate(0.5 0.6)">
    <g id="Group_53" transform="translate(0.5 0.5)">
      <g id="saving-piggy-bank">
        <path id="Shape_431" d="M12,5.021A17.1,17.1,0,0,1,23.434,8.41" transform="translate(14.299 5.268)" fill="none" stroke="#555" stroke-linecap="round" stroke-linejoin="round" stroke-width="2"/>
        <path id="Shape_432" d="M26.074,8A4.575,4.575,0,0,1,21.5,12.573" transform="translate(26.523 9.151)" fill="none" stroke="#555" stroke-linecap="round" stroke-linejoin="round" stroke-width="2"/>
        <path id="Shape_433" d="M21.2,4.569A8,8,0,0,0,12.22.757a1.143,1.143,0,0,0-.5,1.935,8.008,8.008,0,0,1,2.269,3.858,1.143,1.143,0,0,1-.485,1.237,17.85,17.85,0,0,0-8.255,12.15H2.787A2.286,2.286,0,0,0,.5,22.223V26.8a2.285,2.285,0,0,0,2.287,2.287H6.674A22.022,22.022,0,0,0,26.8,40.518c12,0,21.725-8.189,21.725-18.295C48.523,10.407,35.26,1.413,21.2,4.569Z" transform="translate(-0.5 -0.5)" fill="none" stroke="#555" stroke-linecap="round" stroke-linejoin="round" stroke-width="2"/>
        <path id="Shape_434" d="M6.322,8.249a.572.572,0,1,1-.572.572.572.572,0,0,1,.572-.572" transform="translate(6.256 9.472)" fill="none" stroke="#555" stroke-linecap="round" stroke-linejoin="round" stroke-width="2"/>
        <path id="Shape_435" d="M8.791,17.044,6.5,24.943" transform="translate(7.226 20.79)" fill="none" stroke="#555" stroke-linecap="round" stroke-linejoin="round" stroke-width="2"/>
        <path id="Shape_436" d="M16.5,17.044l2.287,7.9" transform="translate(20.094 20.79)" fill="none" stroke="#555" stroke-linecap="round" stroke-linejoin="round" stroke-width="2"/>
      </g>
    </g>
  </g>
</svg>
