<svg xmlns="http://www.w3.org/2000/svg" width="47.035" height="47.035" viewBox="0 0 47.035 47.035">
  <g id="Food-Drinks__x2F__Fastfood__x2F__fast-food-double-burger" transform="translate(0.5 0.5)">
    <g id="Group_30" transform="translate(0.5 0.5)">
      <g id="Light_30">
        <path id="Shape_184" d="M12,16.5l9.224,4.609a3.91,3.91,0,0,0,4.519-.732L29.622,16.5" transform="translate(10.518 14.829)" fill="none" stroke="#555" stroke-linecap="round" stroke-linejoin="round" stroke-width="2"/>
        <path id="Shape_185" d="M45.535,20.416a3.918,3.918,0,0,1-3.916,3.916H4.416a3.916,3.916,0,1,1,0-7.832h37.2A3.918,3.918,0,0,1,45.535,20.416Z" transform="translate(-0.5 14.829)" fill="none" stroke="#555" stroke-linecap="round" stroke-linejoin="round" stroke-width="2"/>
        <path id="Shape_186" d="M4.416,20.332a3.916,3.916,0,1,1,0-7.832" transform="translate(-0.5 10.997)" fill="none" stroke="#555" stroke-linecap="round" stroke-linejoin="round" stroke-width="2"/>
        <path id="Shape_187" d="M21.5,12.5a3.916,3.916,0,1,1,0,7.832" transform="translate(19.619 10.997)" fill="none" stroke="#555" stroke-linecap="round" stroke-linejoin="round" stroke-width="2"/>
        <path id="Shape_188" d="M2.5,20.5v1.958a3.918,3.918,0,0,0,3.916,3.916H35.787A3.918,3.918,0,0,0,39.7,22.458V20.5" transform="translate(1.416 18.661)" fill="none" stroke="#555" stroke-linecap="round" stroke-linejoin="round" stroke-width="2"/>
        <path id="Shape_189" d="M39.7,18.122C39.7,7.849,31.373.5,21.1.5S2.5,7.849,2.5,18.122Z" transform="translate(1.416 -0.5)" fill="none" stroke="#555" stroke-linecap="round" stroke-linejoin="round" stroke-width="2"/>
        <path id="Shape_190" d="M4.416,9.5S.5,10.283.5,12.437s1.762,2.937,3.916,2.937A4.464,4.464,0,0,0,7.353,14.4a5.4,5.4,0,0,0,4.9,2.937,4.73,4.73,0,0,0,4.9-2.937,6.145,6.145,0,0,0,5.874,2.937A6.147,6.147,0,0,0,28.892,14.4a4.727,4.727,0,0,0,4.9,2.937,5.4,5.4,0,0,0,4.9-2.937,4.464,4.464,0,0,0,2.937.979c2.162,0,3.916-.783,3.916-2.937S41.619,9.5,41.619,9.5" transform="translate(-0.5 8.122)" fill="none" stroke="#555" stroke-linecap="round" stroke-linejoin="round" stroke-width="2"/>
        <path id="Shape_191" d="M12.24,6.043a.49.49,0,1,1,.49-.49.49.49,0,0,1-.49.49" transform="translate(10.278 3.873)" fill="none" stroke="#555" stroke-linecap="round" stroke-linejoin="round" stroke-width="2"/>
        <path id="Shape_192" d="M9.74,3.564a.49.49,0,1,1-.49.49.49.49,0,0,1,.49-.49" transform="translate(7.883 2.435)" fill="none" stroke="#555" stroke-linecap="round" stroke-linejoin="round" stroke-width="2"/>
        <path id="Shape_193" d="M7.24,6.043a.49.49,0,1,1,.49-.49.49.49,0,0,1-.49.49" transform="translate(5.488 3.873)" fill="none" stroke="#555" stroke-linecap="round" stroke-linejoin="round" stroke-width="2"/>
        <path id="Shape_194" d="M14.74,3.564a.49.49,0,1,0,.49.49.49.49,0,0,0-.49-.49" transform="translate(12.673 2.435)" fill="none" stroke="#555" stroke-linecap="round" stroke-linejoin="round" stroke-width="2"/>
        <path id="Shape_195" d="M17.24,6.043a.49.49,0,1,0-.49-.49.49.49,0,0,0,.49.49" transform="translate(15.068 3.873)" fill="none" stroke="#555" stroke-linecap="round" stroke-linejoin="round" stroke-width="2"/>
      </g>
    </g>
  </g>
</svg>
