<svg xmlns="http://www.w3.org/2000/svg" width="21.29" height="21.29" viewBox="0 0 21.29 21.29">
  <g id="Group_394" data-name="Group 394" transform="translate(-85.633 -0.512)">
    <path id="Fill_7" data-name="Fill 7" d="M5.477,10.955a5.477,5.477,0,1,1,5.477-5.477A5.484,5.484,0,0,1,5.477,10.955Zm0-8.995A3.517,3.517,0,1,0,8.995,5.477,3.522,3.522,0,0,0,5.477,1.96Z" transform="translate(90.801 5.619)" fill="#555"/>
    <path id="Fill_9" data-name="Fill 9" d="M1.244,0A1.244,1.244,0,1,0,2.487,1.243,1.244,1.244,0,0,0,1.244,0" transform="translate(100.719 4.242)" fill="#555"/>
    <path id="Fill_11" data-name="Fill 11" d="M15.017,21.29H6.274A6.275,6.275,0,0,1,1.792,19.6,6.205,6.205,0,0,1,0,15.017V6.224A5.893,5.893,0,0,1,6.224,0h8.841a6.181,6.181,0,0,1,4.508,1.742A6.2,6.2,0,0,1,21.29,6.224v8.842a6.163,6.163,0,0,1-1.755,4.54A6.3,6.3,0,0,1,15.017,21.29ZM6.224,1.96A4.3,4.3,0,0,0,3.107,3.1,4.286,4.286,0,0,0,1.959,6.224v8.793a4.3,4.3,0,0,0,1.2,3.178,4.36,4.36,0,0,0,3.117,1.136h8.743a4.389,4.389,0,0,0,3.15-1.128,4.256,4.256,0,0,0,1.164-3.137V6.224a4.281,4.281,0,0,0-1.147-3.1A4.27,4.27,0,0,0,15.065,1.96Z" transform="translate(85.633 0.512)" fill="#555"/>
  </g>
</svg>
