<svg xmlns="http://www.w3.org/2000/svg" xmlns:xlink="http://www.w3.org/1999/xlink" width="21.239" height="21.374" viewBox="0 0 21.239 21.374">
  <defs>
    <clipPath id="clip-path">
      <path id="Clip_29" data-name="Clip 29" d="M0,0H21.239V21.374H0Z" transform="translate(0.398 0.215)" fill="none"/>
    </clipPath>
  </defs>
  <g id="Group_30" data-name="Group 30" transform="translate(-0.398 -0.215)">
    <path id="Clip_29-2" data-name="Clip 29" d="M0,0H21.239V21.374H0Z" transform="translate(0.398 0.215)" fill="none"/>
    <g id="Group_30-2" data-name="Group 30" clip-path="url(#clip-path)">
      <path id="Fill_28" data-name="Fill 28" d="M19.669,21.374H1.569A1.552,1.552,0,0,1,0,19.843V1.532A1.552,1.552,0,0,1,1.569,0h18.1a1.553,1.553,0,0,1,1.571,1.532V19.843A1.553,1.553,0,0,1,19.669,21.374Zm-6.5-10.828c1.343,0,1.625,1.187,1.625,2.182v5.164h3.209V12.359A4.7,4.7,0,0,0,16.95,9.074a3.471,3.471,0,0,0-2.637-1.061,3.168,3.168,0,0,0-2.892,1.594V8.241H8.213c.041.887,0,9.294,0,9.652h3.208V12.5a2.136,2.136,0,0,1,.105-.782A1.763,1.763,0,0,1,13.172,10.546ZM3.23,8.241v9.652H6.438V8.241ZM4.855,3.588a1.672,1.672,0,1,0-.042,3.335h.022a1.673,1.673,0,1,0,.021-3.335Z" transform="translate(0.398 0.215)" fill="#555"/>
    </g>
  </g>
</svg>
