<svg xmlns="http://www.w3.org/2000/svg" width="22.251" height="21.765" viewBox="0 0 22.251 21.765">
  <g id="Group_395" data-name="Group 395" transform="translate(-1689.336 -2672)">
    <path id="Fill_14" data-name="Fill 14" d="M18.186,11.4H4.064A4.069,4.069,0,0,1,0,7.332V4.066A4.07,4.07,0,0,1,4.064,0H18.186a4.07,4.07,0,0,1,4.064,4.066V7.332A4.069,4.069,0,0,1,18.186,11.4ZM17.124,3.3a1.706,1.706,0,0,0-1.231.46,1.591,1.591,0,0,0-.479,1.194V7.48a1.8,1.8,0,0,0,.436,1.277,1.553,1.553,0,0,0,1.191.464A1.687,1.687,0,0,0,18.3,8.786a1.815,1.815,0,0,0,.425-1.306V7.191H17.57v.257a1.207,1.207,0,0,1-.112.643.461.461,0,0,1-.392.146.415.415,0,0,1-.381-.171,1.211,1.211,0,0,1-.11-.617V6.386h2.153V4.95a1.7,1.7,0,0,0-.415-1.228A1.589,1.589,0,0,0,17.124,3.3Zm-9.6.14V8.143a1.2,1.2,0,0,0,.2.755.7.7,0,0,0,.587.252,1.369,1.369,0,0,0,.654-.181,2.369,2.369,0,0,0,.65-.519v.616h1.126V3.435H9.615V7.712a1.538,1.538,0,0,1-.348.3.646.646,0,0,1-.314.118.277.277,0,0,1-.232-.09.477.477,0,0,1-.069-.288V3.435Zm5.2,5.2,0,0a1.462,1.462,0,0,0,.48.38,1.342,1.342,0,0,0,.589.122.939.939,0,0,0,.766-.319,1.41,1.41,0,0,0,.265-.917V4.779a1.685,1.685,0,0,0-.283-1.053.978.978,0,0,0-.815-.359,1.1,1.1,0,0,0-.52.135,1.772,1.772,0,0,0-.482.39V1.433H11.587V9.067h1.138V8.635Zm-9.587-7.2V2.543H4.45V9.067H5.719V2.543H7.031V1.433Z" transform="translate(1689.336 2682.367)" fill="#555"/>
    <path id="Fill_16" data-name="Fill 16" d="M.5,0A.447.447,0,0,0,.116.156.825.825,0,0,0,0,.66V1.23H1V.66a.827.827,0,0,0-.119-.5A.432.432,0,0,0,.5,0" transform="translate(1705.91 2686.646)" fill="#555"/>
    <path id="Fill_18" data-name="Fill 18" d="M.471,0A.555.555,0,0,0,.232.055.839.839,0,0,0,0,.226V3.735a1,1,0,0,0,.267.2A.666.666,0,0,0,.539,4a.365.365,0,0,0,.3-.12.621.621,0,0,0,.1-.388V.579A.674.674,0,0,0,.822.146.435.435,0,0,0,.471,0" transform="translate(1702.059 2686.629)" fill="#555"/>
    <path id="Fill_20" data-name="Fill 20" d="M1.7,8.41H3.126V4.921L4.786,0H3.337L2.454,3.362H2.364L1.437,0H0L1.7,5.078Z" transform="translate(1693.549 2672)" fill="#555"/>
    <path id="Fill_22" data-name="Fill 22" d="M1.83,6.517A1.88,1.88,0,0,1,.5,6.049,1.657,1.657,0,0,1,0,4.791V1.575A1.428,1.428,0,0,1,.51.427,2.09,2.09,0,0,1,1.886,0,1.877,1.877,0,0,1,3.177.449a1.5,1.5,0,0,1,.5,1.161V4.816a1.6,1.6,0,0,1-.49,1.247A1.939,1.939,0,0,1,1.83,6.517Zm0-5.442a.557.557,0,0,0-.378.124.418.418,0,0,0-.143.328v3.38a.551.551,0,0,0,.134.394.5.5,0,0,0,.387.14A.577.577,0,0,0,2.235,5.3a.517.517,0,0,0,.152-.392V1.527A.406.406,0,0,0,2.232,1.2.622.622,0,0,0,1.825,1.075Z" transform="translate(1698.439 2674.049)" fill="#555"/>
    <path id="Fill_24" data-name="Fill 24" d="M.885,6.294a1.6,1.6,0,0,0,.735-.2,2.674,2.674,0,0,0,.73-.579V6.2H3.616V0H2.349V4.709a1.718,1.718,0,0,1-.39.333.736.736,0,0,1-.355.13.3.3,0,0,1-.257-.1.507.507,0,0,1-.082-.317V0H0V5.185a1.31,1.31,0,0,0,.222.83.8.8,0,0,0,.663.28" transform="translate(1703.145 2674.207)" fill="#555"/>
  </g>
</svg>
