<svg xmlns="http://www.w3.org/2000/svg" xmlns:xlink="http://www.w3.org/1999/xlink" width="25.712" height="20.896" viewBox="0 0 25.712 20.896">
  <defs>
    <clipPath id="clip-path">
      <path id="Clip_2" data-name="Clip 2" d="M0,0H25.712V20.9H0Z" transform="translate(0.053 0.479)" fill="none"/>
    </clipPath>
  </defs>
  <g id="Group_3" data-name="Group 3" transform="translate(-0.053 -0.479)">
    <path id="Clip_2-2" data-name="Clip 2" d="M0,0H25.712V20.9H0Z" transform="translate(0.053 0.479)" fill="none"/>
    <g id="Group_3-2" data-name="Group 3" clip-path="url(#clip-path)">
      <path id="Fill_1" data-name="Fill 1" d="M0,18.525A14.931,14.931,0,0,0,8.087,20.9,14.92,14.92,0,0,0,23.08,5.2a10.688,10.688,0,0,0,2.632-2.731,10.525,10.525,0,0,1-3.029.83A5.279,5.279,0,0,0,25,.385a10.56,10.56,0,0,1-3.349,1.281,5.278,5.278,0,0,0-8.989,4.811A14.971,14.971,0,0,1,1.791.965,5.281,5.281,0,0,0,3.423,8.008a5.249,5.249,0,0,1-2.391-.66,5.282,5.282,0,0,0,4.231,5.24,5.273,5.273,0,0,1-2.381.09A5.276,5.276,0,0,0,7.81,16.341,10.6,10.6,0,0,1,0,18.525" transform="translate(0.053 0.479)" fill="#555"/>
    </g>
  </g>
</svg>
