<svg xmlns="http://www.w3.org/2000/svg" width="47.035" height="47.035" viewBox="0 0 47.035 47.035">
  <g id="Food-Drinks__x2F__Eating-Restaurant__x2F__restaurant-eating-set" transform="translate(0.5 0.5)">
    <g id="Group_3" transform="translate(0.5 0.5)">
      <g id="Light_3">
        <path id="Shape_8" d="M20.5,29.871h4.9a.979.979,0,0,0,.979-.979C26.243,13.619,23.149.5,20.5.5V45.535" transform="translate(18.661 -0.5)" fill="none" stroke="#555" stroke-linecap="round" stroke-linejoin="round" stroke-width="2"/>
        <path id="Shape_9" d="M.5.5v9.79a5.874,5.874,0,0,0,11.748,0V.5" transform="translate(-0.5 -0.5)" fill="none" stroke="#555" stroke-linecap="round" stroke-linejoin="round" stroke-width="2"/>
        <path id="Shape_10" d="M3.5.5V45.535" transform="translate(2.375 -0.5)" fill="none" stroke="#555" stroke-linecap="round" stroke-linejoin="round" stroke-width="2"/>
        <path id="Oval_3" d="M18.228,34.955A12.727,12.727,0,1,0,5.5,22.227,12.727,12.727,0,0,0,18.228,34.955Z" transform="translate(4.291 8.122)" fill="none" stroke="#555" stroke-linecap="round" stroke-linejoin="round" stroke-width="2"/>
      </g>
    </g>
  </g>
</svg>
