<svg xmlns="http://www.w3.org/2000/svg" width="60.624" height="59.35" viewBox="0 0 60.624 59.35">
  <g id="Travel__x2F__Planes-Trip__x2F__plane-trip-international" transform="translate(0.516 0.505)">
    <g id="Group_41" transform="translate(0.5 0.5)">
      <g id="plane-trip-international">
        <path id="Shape_255" d="M18.174,23.754l-6.189-2.768a1.278,1.278,0,0,0-1.154.056l-2.74,1.575A1.279,1.279,0,0,0,8.036,24.8l9.337,6.023a1.271,1.271,0,0,0,1.159.115L29.51,26.6l-3.7,9.62a1.277,1.277,0,0,0,1.787,1.591l2.469-1.277a1.28,1.28,0,0,0,.531-.511L37.486,23.44,46.3,19.549a3.263,3.263,0,1,0-2.525-6.018Z" transform="translate(10.294 19.343)" fill="none" stroke="#555" stroke-linecap="round" stroke-linejoin="round" stroke-width="2"/>
        <path id="Shape_256" d="M26.736,18.694l-9.771-6.127a1.275,1.275,0,0,0-1.277-.054l-2.617,1.353a1.274,1.274,0,0,0-.125,2.2l7.631,5.076" transform="translate(17.945 17.931)" fill="none" stroke="#555" stroke-linecap="round" stroke-linejoin="round" stroke-width="2"/>
        <path id="Shape_257" d="M15.839,38.414A19.148,19.148,0,1,1,38.8,19.643" transform="translate(-0.5 -0.5)" fill="none" stroke="#555" stroke-linecap="round" stroke-linejoin="round" stroke-width="2"/>
        <path id="Shape_258" d="M7.488,25.292,9.2,16.71h1.838a2.548,2.548,0,0,0,2.474-3.171L12.24,8.433A2.551,2.551,0,0,0,9.766,6.5H.651" transform="translate(-0.267 8.815)" fill="none" stroke="#555" stroke-linecap="round" stroke-linejoin="round" stroke-width="2"/>
        <path id="Shape_259" d="M20.526,3.5H13.61a2.556,2.556,0,0,0-2.477,1.935L9.857,10.54a2.555,2.555,0,0,0,2.477,3.171h2.688l1.345,8.081" transform="translate(13.915 4.156)" fill="none" stroke="#555" stroke-linecap="round" stroke-linejoin="round" stroke-width="2"/>
      </g>
    </g>
  </g>
</svg>
